<svg version="1" xmlns="http://www.w3.org/2000/svg" width="534.667" height="534.667" viewBox="0 0 401.000000 401.000000"><path d="M295.7 40.7l-4.8.4.3 4.7.3 4.7 4.3.3 4.2.3-.2 9.2c-.1 6.8-.3 8-.7 4.8-.6-4.3-.7-4.5-4.1-4.5-3.5-.1-3.5-.2-3.8-4.9l-.3-4.7H271v10h-80v9h26.3c14.4 0 32.4.3 40 .6l13.7.6V61h9.9v9.4c0 6.5-.4 9.6-1.2 9.8-.7.3-5.1.4-9.9.4l-8.8-.1V90l4.8.1c2.6.1 7 .2 9.9.3l5.2.3-.1-3.6c-.1-7.5-.2-7.3 5-6.9l4.8.3-.2-3.9c-.3-5.9.3-6.6 5.2-6.6h4.4v29.9l-10.2.4-10.3.3 10.3.2 10.2.2-.2 34.7c-.1 19.2-.3 32.7-.5 30.1l-.4-4.6-4.2-.4-4.2-.3v10h-29l-.3-4.8-.3-4.7H251v-15c0-16.6.6-15.3-6.7-15.2H241V100l9.9.2 9.9.3-.5-4.5c-.3-2.5-.6-4.6-.7-4.7-.1-.1-11.1-.3-24.4-.5l-24.2-.3v9.5l-14.5.1c-8 .1-15.2.1-16 .1-.8 0-5.8 0-11-.1l-9.5-.1v-9h-8.9l-.3 4.7-.3 4.8-15 .2c-8.2.1-19.4.2-24.7.2l-9.7.1-.3 4.7-.3 4.8h-10l-.3-4.8-.3-4.7-4.7-.1c-2.6 0-6.9-.1-9.7-.2l-5-.2-.3-4.8-.3-4.7H51.1l-.3 4.7-.3 4.8h-10l.3 30.2.3 30.3H31v28.8l4.8.4 4.8.3-.1-8.5c0-4.7.1-9.1.3-9.8.3-.7 2.3-1.2 5.3-1.2H51v-30h10v-10h9.5l.1-5.4v-5.5H60v9.9h-9v-29h19v10h10v10h20l-.1 65v65H90v10.1l-4.7-.3-4.8-.3.1-4.8V251h-4.8c-2.6 0-4.7-.3-4.7-.8.1-.4.1-1.4 0-2.2-.1-1.3-.3-1.3-1 0-.6.8-.7 1.8-.5 2.2.3.4-4 .8-9.6.8H49.9l.3-5.3.3-5.2H61V230h-4.9c-3 0-5.1-.5-5.4-1.3-.4-.9-.6-.9-.6 0-.1.9-1.7 1.3-4.5 1.3h-4.5l-.3-4.8-.3-4.7-4.6-.3-4.6-.3-.7-6.7c-.3-3.7-.6-10.2-.6-14.5V191h-8.9l-.3 4.7c-.2 2.7-.2 13.7 0 24.5l.3 19.7 4.7.3 4.7.3.3 4.7.3 4.7 4.7.3 4.7.3.3 4.7.3 4.7 4.7.3 4.7.3.3 5.2.3 5.3H71v28.9l4.8.3 4.7.3.3 14.7.3 14.7 4.7.3 4.7.3.3 4.7.3 4.7 4.7.3 4.7.3v10l-4.7.3-4.8.3v9.9h49.5l-.3-5-.4-5h10.7v-10.5l4.8-.3 4.7-.3V321h21v30h10v10.1l-5.2-.3-5.3-.3-.3-4.8-.3-4.7H171v10h10v10h50v-10h9.5l-.3-5-.4-5h10.1l.3-10.3.3-10.2 4.8-.3 4.7-.3V321h11v19h10v-10.1l4.8.3 4.7.3.3 5.2.3 5.3H281v10h49.5l-.3-5-.4-5H321v-11.1l4.8.3 4.7.3.3 4.7.3 4.8h8.8l.3-4.8.3-4.7H351V311h10v-40h-10v-19.9l-5.2-.3-5.3-.3-.2-9.8-.3-9.7h11v-10.5l5 .2 5 .2V200h10v-49h-10v-20h-10v-19.9l-5.2-.3-5.3-.3-.3-4.7-.3-4.7-4.7-.3-4.7-.3-.2-15.5c-.1-8.5-.2-17.4-.2-19.8L330 61h-9v-9.9l-10.2-.3-10.3-.3v-5.3-5c0 .1-2.2.3-4.8.5zm16 27c-.3 1-.5.4-.5-1.2 0-1.7.2-2.4.5-1.8.2.7.2 2.1 0 3zm0 11c-.3 1-.5.2-.5-1.7s.2-2.7.5-1.8c.2 1 .2 2.6 0 3.5zm-2 7.5c-.2 1.3-.4.5-.4-1.7-.1-2.2.1-3.2.4-2.3.2 1 .2 2.8 0 4zm-38 1.5c-.3 1-.5.4-.5-1.2 0-1.7.2-2.4.5-1.8.2.7.2 2.1 0 3zm34.7 4.2c.4.5-.3.7-1.4.4-2.3-.6-2.6-1.3-.6-1.3.8 0 1.7.4 2 .9zm3.4 4.2c-.3 3.3-.4 3.3-.8-.8-.3-2.3-.2-3.9.3-3.4s.7 2.4.5 4.2zM230 115.5c0 10.9-.3 14.5-1.2 14.6-1 0-1 .2 0 .6.7.3 1.2 2.3 1.2 4.9 0 2.8-.5 4.4-1.2 4.5-1 0-1 .2 0 .6.8.3 1.2 3.3 1.2 9.9v9.4h-10v10h-9v-10h-10l.1-14.6c0-8-.2-14.9-.5-15.2-.6-.6-.9 6.8-.6 15.1l.2 4.7-10.1-.2-10.1-.3V160h-9.8l.2 5.1.1 5.1 5 .2 5 .1v-10h20l.3 4.7.3 4.7 4.7.3 4.7.3.3 9.7.3 9.7 4.7.3 4.7.3.2 10.2.3 10.3h-10v10.2l-5.5-.4-5.5-.3v9.4h-9.2c-5.1 0-9.5-.4-9.8-.8-.3-.5-1.1-.3-1.8.5s-.8 1.4-.2 1.4c.5 0 1 2 1 4.4v4.5l5.3.3 5.2.3.3 5.3.3 5.3-5.3-.3-5.3-.3-.3-5.3-.3-5.2h-4.2c-2.3 0-13.5-.1-25-.3l-20.7-.2v5.7c0 5.6-.1 5.8-2.7 5.9l-2.8.2 2.8.4c2.4.4 2.7.9 2.9 4.6l.1 4.2.4-4.3.4-4.2h8.9l.2 4.7.2 4.8.3-4.8.4-4.7h4.5c3.9 0 4.4.3 4.5 2.2l.2 2.3.4-2.2c.4-2.2.9-2.3 9.9-2.3h9.4v8.5l-4.2-.1c-3.1 0-4.3-.6-4.8-1.9-.4-1-.9-1.4-1.3-.9-.3.6-.2 1.6.4 2.4.5.8.9 3.6.9 6.2v4.8h-24.8c-13.7 0-25.2-.3-25.6-.7-.4-.4-2.7-.6-5.1-.4l-4.5.3v-9.4l4.8.3c4.3.3 4.7.1 5-2 .2-1.5 0-2.1-.7-1.6-.6.3-.9 1.1-.6 1.6.4.5-1.4.9-3.9.9H101v-4c0-3.7.2-4 2.8-4.1l2.7-.2-2.7-.4-2.8-.4V201h20v-10h10v-20.6h-10.5c-8.9 0-10.5.3-10.4 1.6.1.8.1 3.1 0 5.1-.1 3.5-.1 3.5-4.6 3.5l-4.5-.1V161h30v-10h10v-10h10v-20.6l-15.5-.2-15.5-.1v10.4l-5.1-.3-5-.4.2 4.6c.2 2.5 0 4.9-.4 5.3-.4.4-2.5.7-4.7.7l-4 .1V111h79v10.5l5.5-.3 5.5-.4V111h20v-10h19v14.5zm80.7 10.2l-.2 24.8h-9l-.3-24.8-.2-24.7h9.9l-.2 24.7zm18.9-23.9c-.5.8-7.6.4-7.6-.4 0-.2 1.8-.4 4.1-.4 2.2 0 3.8.4 3.5.8zm9.1 16.8c-.3.3-1.2.4-1.9.1-.8-.3-.5-.6.6-.6 1.1-.1 1.7.2 1.3.5zm-19 8.6c-.3.7-.5.2-.5-1.2s.2-1.9.5-1.3c.2.7.2 1.9 0 2.5zm19.6 2.5c-.7.2-1.9.2-2.5 0-.7-.3-.2-.5 1.2-.5s1.9.2 1.3.5zM320 132c0 1.3-1.1 1.3-3 0-1.2-.8-1.1-1 .8-1 1.2 0 2.2.4 2.2 1zm28.3-.3c-1.3.2-3.5.2-5 0-1.6-.2-.5-.4 2.2-.4 2.8 0 4 .2 2.8.4zm-15.6 7c-.3 1-.5.2-.5-1.7s.2-2.7.5-1.8c.2 1 .2 2.6 0 3.5zm-21 15.5c-.3.8-.6.5-.6-.6-.1-1.1.2-1.7.5-1.3.3.3.4 1.2.1 1.9zm48 3c-.2 1.3-.4.5-.4-1.7-.1-2.2.1-3.2.4-2.3.2 1 .2 2.8 0 4zm-50 .5c-.3 1-.5.2-.5-1.7s.2-2.7.5-1.8c.2 1 .2 2.6 0 3.5zm10 .5c-.3.7-.5.2-.5-1.2s.2-1.9.5-1.3c.2.7.2 1.9 0 2.5zm-17 9c-.2 1.3-.4.5-.4-1.7-.1-2.2.1-3.2.4-2.3.2 1 .2 2.8 0 4zm57 0c-.2 1.3-.4.5-.4-1.7-.1-2.2.1-3.2.4-2.3.2 1 .2 2.8 0 4zm-48 .5c-.3 1-.5.2-.5-1.7s.2-2.7.5-1.8c.2 1 .2 2.6 0 3.5zm-12 10c-.2 1.6-.4.5-.4-2.2 0-2.8.2-4 .4-2.8.2 1.3.2 3.5 0 5zm10 0c-.2 1.6-.4.5-.4-2.2 0-2.8.2-4 .4-2.8.2 1.3.2 3.5 0 5zm40-3.5c-.3.7-.5.2-.5-1.2s.2-1.9.5-1.3c.2.7.2 1.9 0 2.5zm-38 3c-.3.7-.5.2-.5-1.2s.2-1.9.5-1.3c.2.7.2 1.9 0 2.5zm48 1.5c-.3 1-.5.2-.5-1.7s.2-2.7.5-1.8c.2 1 .2 2.6 0 3.5zm-57-1.5c-.3.8-.6.5-.6-.6-.1-1.1.2-1.7.5-1.3.3.3.4 1.2.1 1.9zm-18.6 2.6c-.7.2-1.8-.1-2.3-.6-.8-.8-.4-.9 1.3-.5 1.3.4 1.8.8 1 1.1zm35.4 0c-.3.3-1.1 0-1.8-.7-.9-1-.8-1.1.6-.5 1 .3 1.5.9 1.2 1.2zm-23.8-.2c-.3.3-1.2.4-1.9.1-.8-.3-.5-.6.6-.6 1.1-.1 1.7.2 1.3.5zm31.1.1c-1 .2-2.6.2-3.5 0-1-.3-.2-.5 1.7-.5s2.7.2 1.8.5zm-27.1 8c-.2 1.6-.4.5-.4-2.2 0-2.8.2-4 .4-2.8.2 1.3.2 3.5 0 5zm10-.5c-.2 1.3-.4.3-.4-2.2s.2-3.5.4-2.3c.2 1.3.2 3.3 0 4.5zm28.6-5.5c-1.3.2-3.3.2-4.5 0-1.3-.2-.3-.4 2.2-.4s3.5.2 2.3.4zm21.7.8c0 .8-.2 1.5-.4 1.5s-.6-.7-1-1.5c-.3-.8-.1-1.5.4-1.5.6 0 1 .7 1 1.5zm-48.3 5.7c-.3.7-.5.2-.5-1.2s.2-1.9.5-1.3c.2.7.2 1.9 0 2.5zm48 .5c-.3 1-.5.4-.5-1.2 0-1.7.2-2.4.5-1.8.2.7.2 2.1 0 3zm-60 8.5c-.2 1.3-.4.3-.4-2.2s.2-3.5.4-2.3c.2 1.3.2 3.3 0 4.5zm3-2c-.3.7-.5.2-.5-1.2s.2-1.9.5-1.3c.2.7.2 1.9 0 2.5zm7 0c-.3.7-.5.2-.5-1.2s.2-1.9.5-1.3c.2.7.2 1.9 0 2.5zm2 0c-.3.7-.5.2-.5-1.2s.2-1.9.5-1.3c.2.7.2 1.9 0 2.5zm48 3c-.2 1.3-.4.3-.4-2.2s.2-3.5.4-2.3c.2 1.3.2 3.3 0 4.5zm-60 9c-.2 1.3-.4.5-.4-1.7-.1-2.2.1-3.2.4-2.3.2 1 .2 2.8 0 4zm10-1.5c-.3 1-.5.4-.5-1.2 0-1.7.2-2.4.5-1.8.2.7.2 2.1 0 3zm-7 1c-.3 1-.5.4-.5-1.2 0-1.7.2-2.4.5-1.8.2.7.2 2.1 0 3zm11 5.7c0 .8-.6 1.2-1.5.9-1.1-.5-1.1-.7 0-1.4.7-.5 1.3-.9 1.4-.9 0 0 .1.6.1 1.4zm6 5.8c-.3.8-.6.5-.6-.6-.1-1.1.2-1.7.5-1.3.3.3.4 1.2.1 1.9zm26 1.4c-.3.3-1.2.4-1.9.1-.8-.3-.5-.6.6-.6 1.1-.1 1.7.2 1.3.5zm-18.4 2.1c-.7.2-1.9.2-2.5 0-.7-.3-.2-.5 1.2-.5s1.9.2 1.3.5zm10.5 0c-1 .2-2.8.2-4 0-1.3-.2-.5-.4 1.7-.4 2.2-.1 3.2.1 2.3.4zm-8.5 8c-.7.2-1.9.2-2.5 0-.7-.3-.2-.5 1.2-.5s1.9.2 1.3.5zm9.5 0c-1 .2-2.8.2-4 0-1.3-.2-.5-.4 1.7-.4 2.2-.1 3.2.1 2.3.4zM99 256.4c0 4.3-.1 4.4-2.7 4.1-1.6-.2-3.4-.4-4-.4-.8-.1-1.3-1.6-1.3-4.1v-4h8v4.4zm81 .2v4.4h-9v-8.9l4.5.1 4.5.1v4.3zm-80 38.9v4.5H81v-8.9h19v4.4zm10 0v4.5h-9v-9h9v4.5zm110 0v4.5h-19v-9h19v4.5zM120 311v10h10v19h-9v-9.9h-11v9.8l5.3.3 5.2.3.3 5.2.3 5.3H110v-11h-9v-39h19v10zm110-5.5c0 2.9-.4 4.5-1.2 4.6-1 0-1 .2 0 .6 1.7.7 1.7 29.3 0 29.4-.7.1-3 0-5-.1l-3.8-.2v10.8h-4.2l-4.3-.1-.5-5.5c-.3-3-.8-5.4-1.2-5.3-.5.2-2.6.3-4.8.3h-4v-9.1l10 .3 10 .3v-10.2c0-7.2.4-10.3 1.3-10.7.6-.2-1.5-.4-4.8-.3l-6 .2-.3-4.7-.3-4.7H230v4.4zm-130 20v4.5h-9v-9h9v4.5zm99.8 10.2l-.3 14.7-2.5-.1c-6.5-.1-6 1-6-14.8V321h9.1l-.3 14.7zm111 0l.3 5.3H301v-11.1l4.8.3 4.7.3.3 5.2zm-100 20.1l.3 5.3-5.3-.3-5.3-.3-.3-3.9c-.5-6 .1-6.8 5.5-6.4l4.8.3.3 5.3zm20 0l.3 5.3-5.3-.3-5.3-.3-.3-3.9c-.5-6 .1-6.8 5.5-6.4l4.8.3.3 5.3z"/><path d="M200.1 119.6c0 1.1.3 1.4.6.6.3-.7.2-1.6-.1-1.9-.3-.4-.6.2-.5 1.3zM170.8 130.7c.7.3 1.6.2 1.9-.1.4-.3-.2-.6-1.3-.5-1.1 0-1.4.3-.6.6zM178.6 130.7c.5.5 1.2 1.2 1.6 1.8.4.6.8.2.8-.8 0-.9-.7-1.7-1.7-1.7-.9 0-1.2.3-.7.7zM220 131.7c0 1 .4 1.4.8.8.4-.6 1.1-1.3 1.6-1.8.5-.4.2-.7-.7-.7-1 0-1.7.8-1.7 1.7zM179.2 139.5c-1.1 1.2-1 1.5.3 1.5.8 0 1.5-.7 1.5-1.5 0-1.8-.2-1.8-1.8 0zM220 139.3c0 1 .8 1.7 1.8 1.7.9 0 1.3-.4.7-.8-.5-.4-1.3-1.1-1.7-1.6-.5-.5-.8-.2-.8.7zM189.5 140c-.3.5-.1 1 .4 1 .6 0 1.1-.5 1.1-1 0-.6-.2-1-.4-1-.3 0-.8.4-1.1 1zM210 140c0 .5.5 1 1.1 1 .5 0 .7-.5.4-1-.3-.6-.8-1-1.1-1-.2 0-.4.4-.4 1zM170.8 140.7c.7.3 1.6.2 1.9-.1.4-.3-.2-.6-1.3-.5-1.1 0-1.4.3-.6.6zM159.8 180.3l-.3 10.2-4.6-.1h-4.5v4.6l.1 4.5-5.5.6-5.5.6 5.3.1 5.2.2-.2 9.9-.3 10 5.6.3 5.5.3-.4-5.5c-.2-4.1-.1-5.1.7-4 .6.8 1.1 1 1.1.4s1.8-1.1 4-1.2l4-.2.2 6.3.1 6.2.6-6c.4-3.8.2-6.3-.5-6.7-.5-.4-3.1-.8-5.7-.9l-4.7-.3v-8.1l5 .3c2.8.2 5 0 5-.6 0-.5-1.1-.7-2.5-.4-1.3.2-3.6.1-5-.2-2.3-.6-2.5-1.1-2.5-5.6v-5h10l.1-4.5c0-2.5.1-6.9.1-9.8l.1-5.2-5.1-.1-5.1-.2-.3 10.1zM183.3 180.7c1.5.2 3.7.2 5 0 1.2-.2 0-.4-2.8-.4-2.7 0-3.8.2-2.2.4zM185 190.2c0 .5 1.1.8 2.5.8 1.9 0 2.5.5 2.5 2.2 0 1.8.2 2 .9.9 1.3-2.1-.6-4.6-3.5-4.6-1.3 0-2.4.3-2.4.7zM181.8 190.7c.7.3 1.6.2 1.9-.1.4-.3-.2-.6-1.3-.5-1.1 0-1.4.3-.6.6zM199 195c0 4 0 4-3.9 4-2.9 0-4.1-.5-4.4-1.8-.4-1.6-.5-1.6-.6 0-.1 1.4-1.1 1.8-4.8 2l-4.8.1 5 .6c2.8.3 7.1.4 9.8.3l4.7-.4v-4.4c0-2.4-.2-4.4-.5-4.4s-.5 1.8-.5 4zM109.8 220.7c.7.3 1.6.2 1.9-.1.4-.3-.2-.6-1.3-.5-1.1 0-1.4.3-.6.6zM130 221.7c0 1 .4 1.4.8.8.4-.6 1.1-1.3 1.6-1.8.5-.4.2-.7-.7-.7-1 0-1.7.8-1.7 1.7zM138.6 220.7c.5.5 1.2 1.2 1.6 1.8.4.6.8.2.8-.8 0-.9-.7-1.7-1.7-1.7-.9 0-1.2.3-.7.7zM130 229.3c0 1 .8 1.7 1.8 1.7.9 0 1.3-.4.7-.8-.5-.4-1.3-1.1-1.7-1.6-.5-.5-.8-.2-.8.7zM139.2 229.5c-1.1 1.2-1 1.5.3 1.5.8 0 1.5-.7 1.5-1.5 0-1.8-.2-1.8-1.8 0zM170 229.3c0 1 .8 1.7 1.8 1.7.9 0 1.3-.4.7-.8-.5-.4-1.3-1.1-1.7-1.6-.5-.5-.8-.2-.8.7zM110 235.5v5.5h10.8l.4-5.5.3-5.5H110v5.5zM130.1 236.6c0 1.1.3 1.4.6.6.3-.7.2-1.6-.1-1.9-.3-.4-.6.2-.5 1.3zM107 251.4c0 .9 4 1.3 4.6.5.3-.5-.6-.9-2-.9s-2.6.2-2.6.4zM116.2 251.7c3.6.4 3.7.5 4.1 5.1l.3 4.7.2-4.7c.2-3.5.6-4.8 2-5.1.9-.3-1-.4-4.3-.4-3.7 0-4.6.2-2.3.4zM150.1 258.6c0 1.1.3 1.4.6.6.3-.7.2-1.6-.1-1.9-.3-.4-.6.2-.5 1.3zM109.8 310.7c.7.3 1.6.2 1.9-.1.4-.3-.2-.6-1.3-.5-1.1 0-1.4.3-.6.6zM171 75.5V80h19v-9h-19v4.5zM161 85.5V90h9v-9h-9v4.5zM51.5 170.9c-.3.2-.5 4.6-.5 9.7v9.3l4.8.3 4.7.3v31l5.5-.3 5.5-.3-.3-10-.2-9.9 5.2-.2 5.3-.1-5.5-.6-5.5-.6v-9h-9l-.3-10.1-.3-10.1-4.5.1c-2.4 0-4.7.2-4.9.5zM40.7 201.2c.6 1 9.3 1 9.3 0 0-.4-2.2-.7-4.9-.7s-4.7.3-4.4.7zM48.7 209.6c-.4.4-.3 1.2.2 1.8.6.7 1.1 3.6 1.4 6.6l.3 5.5.2-6c.2-5.8-.7-9.2-2.1-7.9zM41 210.4c0 .2 1.4.6 3 .8 1.7.3 3 .1 3-.4 0-.4-1.3-.8-3-.8-1.6 0-3 .2-3 .4z"/><path d="M59.2 216.5c0 1.6.2 2.2.5 1.2.2-.9.2-2.3 0-3-.3-.6-.5.1-.5 1.8zM73.8 220.7c.7.3 1.6.2 1.9-.1.4-.3-.2-.6-1.3-.5-1.1 0-1.4.3-.6.6zM80.8 220.7c.7.3 1.6.2 1.9-.1.4-.3-.2-.6-1.3-.5-1.1 0-1.4.3-.6.6zM88.6 220.7c.5.5 1.2 1.2 1.6 1.8.4.6.8.2.8-.8 0-.9-.7-1.7-1.7-1.7-.9 0-1.2.3-.7.7zM80.1 234.2L80 241h11l-.1-6.8c0-3.7-.3-6.1-.6-5.5-.3.8-2.3 1.3-4.8 1.3s-4.5-.5-4.8-1.3c-.3-.6-.6 1.8-.6 5.5zM69.7 241.7c-.3.5-.1 1.7.3 2.8.6 1.7.7 1.6 1.2-.8.5-2.5-.5-3.7-1.5-2zM90.2 248c0 1.4.2 1.9.5 1.2.2-.6.2-1.8 0-2.5-.3-.6-.5-.1-.5 1.3zM84.3 251.7c.9.2 2.5.2 3.5 0 .9-.3.1-.5-1.8-.5-1.9 0-2.7.2-1.7.5zM81 346v5h9v-10h-9v5z"/></svg>